<?xml version="1.0" standalone="no"?>
<!DOCTYPE svg PUBLIC "-//W3C//DTD SVG 20010904//EN"
 "http://www.w3.org/TR/2001/REC-SVG-20010904/DTD/svg10.dtd">
<svg version="1.0" xmlns="http://www.w3.org/2000/svg"
 width="940.000000pt" height="1128.000000pt" viewBox="0 0 940.000000 1128.000000"
 preserveAspectRatio="xMidYMid meet">
<metadata>
Created by potrace 1.16, written by Peter Selinger 2001-2019
</metadata>
<g transform="translate(0.000000,1128.000000) scale(0.100000,-0.100000)"
fill="#000000" stroke="none">
<path d="M4705 10114 c-104 -13 -182 -28 -200 -40 -11 -8 -33 -14 -49 -14
l-30 0 29 -30 c35 -37 27 -38 -25 -4 -29 19 -48 25 -68 21 -16 -3 -41 0 -56 9
-33 16 -50 18 -41 4 4 -6 -6 -10 -24 -10 -16 0 -31 5 -33 11 -2 5 -11 7 -21 3
-10 -3 -16 -12 -13 -19 6 -16 -55 -27 -107 -18 -31 5 -41 2 -56 -16 -12 -14
-22 -18 -26 -11 -3 5 -13 10 -21 10 -8 0 -13 -4 -10 -9 4 -5 4 -16 1 -24 -5
-11 -38 -16 -143 -22 -75 -4 -148 -9 -162 -11 -14 -1 -28 -3 -32 -3 -19 -2 -5
-33 22 -50 39 -23 25 -36 -48 -45 -50 -6 -54 -5 -87 27 -35 34 -45 57 -24 57
8 0 8 5 -1 15 -7 8 -16 12 -21 9 -13 -8 -11 -62 2 -70 8 -4 7 -9 -2 -15 -12
-8 -11 -11 3 -19 13 -8 15 -19 11 -45 -3 -21 -1 -41 7 -50 22 -26 6 -26 -51
-1 -30 13 -64 26 -76 30 -32 10 -30 -12 2 -24 29 -11 35 -34 6 -25 -11 3 -22
1 -26 -5 -8 -13 -72 -4 -93 12 -18 15 -31 0 -34 -40 -3 -37 -12 -48 -48 -57
-24 -6 -25 -4 -23 37 0 24 4 69 8 101 9 63 6 66 -44 41 -24 -12 -30 -21 -26
-33 19 -44 19 -54 -2 -49 -16 4 -21 -2 -31 -36 -6 -23 -10 -67 -8 -98 1 -32
-1 -58 -6 -58 -5 0 -4 -8 1 -19 14 -26 1 -35 -21 -14 -25 22 -23 -2 2 -27 23
-23 26 -40 6 -40 -17 0 -56 47 -56 67 0 7 7 16 15 19 8 4 15 14 15 23 0 9 7
25 16 36 9 12 12 30 8 48 -3 15 -1 33 4 40 5 7 12 32 16 56 5 35 4 42 -6 34
-7 -5 -33 -25 -58 -44 -81 -60 -101 -82 -94 -101 6 -20 -6 -24 -24 -6 -15 15
-24 5 -27 -29 -1 -16 -3 -36 -3 -45 -4 -35 -32 -19 -38 22 l-6 40 -29 -21
c-16 -11 -29 -27 -29 -35 0 -10 -6 -13 -18 -9 -26 8 -73 -30 -66 -53 5 -13 4
-14 -4 -4 -17 24 -62 -26 -69 -76 -5 -37 -9 -43 -25 -39 -15 4 -18 1 -13 -16
6 -21 6 -21 -9 -3 -13 16 -18 17 -30 6 -22 -18 -16 -123 9 -150 10 -11 16 -23
12 -26 -3 -3 -14 4 -24 15 -30 36 -43 27 -36 -26 3 -27 10 -56 14 -65 5 -9 9
-32 10 -50 0 -18 4 -42 8 -53 6 -14 -1 -31 -26 -63 -38 -51 -41 -73 -12 -139
l20 -48 -24 24 c-35 32 -63 22 -64 -24 l-1 -35 20 26 c32 39 42 16 24 -54 -18
-69 -20 -122 -6 -207 5 -33 12 -114 15 -180 3 -66 8 -169 11 -230 9 -202 10
-454 1 -452 -5 1 -12 -5 -16 -13 -5 -8 -13 -25 -19 -37 -18 -35 -14 -52 19
-82 22 -20 29 -34 25 -48 -5 -15 1 -23 26 -34 24 -10 34 -23 40 -49 15 -61 18
-66 27 -51 10 16 12 10 31 -79 6 -30 17 -73 22 -95 6 -22 12 -121 12 -220 1
-99 4 -185 8 -190 3 -6 9 -62 13 -125 4 -63 11 -135 17 -160 5 -25 13 -77 19
-116 10 -81 24 -124 39 -124 5 0 10 -9 10 -19 0 -11 11 -28 25 -39 14 -11 25
-25 25 -32 0 -10 -3 -10 -15 0 -17 14 -19 7 -5 -20 8 -16 7 -18 -4 -14 -20 8
-29 36 -14 45 7 4 9 11 5 15 -4 4 -13 2 -20 -5 -9 -9 -4 -26 26 -80 20 -38 37
-79 37 -92 1 -26 21 -59 37 -59 5 0 18 -7 29 -16 18 -15 18 -15 -4 -11 -20 5
-22 3 -10 -11 7 -9 21 -23 31 -30 21 -16 22 -32 2 -32 -8 0 -15 -4 -15 -9 0
-16 30 -66 40 -67 23 -3 24 -6 6 -13 -19 -7 -19 -8 2 -29 19 -19 20 -23 7 -28
-13 -5 -13 -9 0 -33 7 -15 21 -33 29 -41 17 -14 76 -130 76 -150 0 -7 10 -25
21 -42 27 -37 41 -96 26 -101 -8 -2 -6 -13 6 -30 9 -14 17 -31 17 -37 0 -6 8
-28 18 -49 15 -31 16 -39 5 -50 -19 -17 3 -44 28 -36 11 4 19 2 19 -4 0 -6 -9
-11 -20 -11 -14 0 -18 -5 -14 -17 5 -14 2 -14 -13 3 l-19 22 -17 -21 c-19 -24
-22 -37 -6 -37 16 0 3 -87 -15 -106 -21 -20 -20 -25 1 -17 15 6 16 5 3 -9 -8
-8 -22 -13 -32 -10 -10 2 -18 -1 -18 -7 0 -5 7 -8 15 -5 9 4 15 1 15 -7 -1
-23 -24 -46 -42 -43 -17 2 -23 -12 -19 -43 1 -6 -3 -14 -9 -18 -5 -3 -10 -15
-10 -26 0 -10 -5 -19 -11 -19 -5 0 -7 -5 -4 -11 4 -6 13 -8 21 -5 8 3 14 -1
14 -9 0 -8 -4 -15 -10 -15 -16 0 -12 -43 6 -68 9 -13 14 -32 11 -43 -3 -11 0
-19 8 -19 16 0 25 -22 25 -61 0 -22 5 -29 20 -29 11 0 20 -7 20 -15 0 -12 39
-42 48 -37 1 1 5 2 10 2 4 0 0 -5 -8 -10 -13 -8 -13 -11 2 -27 14 -14 18 -14
18 -3 0 9 6 6 16 -8 13 -18 19 -21 30 -11 10 8 14 8 14 1 0 -6 10 -16 21 -23
24 -12 20 -1 -9 34 -15 16 -14 17 4 11 10 -4 29 -16 41 -27 26 -23 43 -16 22
10 -12 15 -12 16 1 8 8 -6 19 -10 23 -10 5 0 19 -17 31 -38 17 -28 25 -34 29
-23 3 8 2 18 -3 21 -5 3 -6 13 -3 22 5 12 2 15 -10 10 -12 -4 -17 -1 -18 11
-1 9 -2 32 -4 50 -2 26 0 30 10 22 9 -8 15 -8 20 0 9 15 -5 32 -21 26 -7 -3
-16 -1 -19 4 -3 4 1 10 7 13 10 3 10 9 1 23 -6 11 -15 18 -20 17 -13 -3 -12
30 1 39 7 5 4 8 -7 8 -16 0 -55 73 -49 93 1 4 -4 7 -12 7 -22 0 -38 24 -24 38
9 9 9 18 0 36 -8 19 -8 27 0 32 7 5 8 2 3 -6 -6 -10 -4 -12 8 -7 10 3 17 3 17
-2 0 -5 15 -7 33 -6 42 4 41 3 27 20 -9 11 -10 19 -2 27 15 15 34 0 30 -25 -2
-22 29 -60 70 -84 18 -11 19 -10 14 9 -3 14 -1 19 6 14 6 -3 13 -2 17 4 3 5 0
10 -7 10 -12 0 -48 34 -48 45 0 4 43 -18 84 -42 4 -3 2 -9 -5 -14 -7 -4 -10
-11 -6 -15 3 -4 13 -1 22 6 13 11 12 15 -10 34 -41 35 -29 38 28 5 28 -16 60
-33 70 -36 9 -3 17 -10 17 -15 0 -5 14 -7 33 -4 19 4 25 3 14 -2 -17 -7 -15
-9 10 -22 15 -8 34 -19 42 -24 7 -6 20 -11 27 -12 8 -1 45 -17 81 -34 36 -18
89 -39 117 -47 28 -8 62 -22 75 -30 20 -13 155 -32 253 -37 17 -1 24 -4 17
-11 -11 -11 -86 -7 -111 6 -10 5 -18 7 -18 5 0 -8 57 -36 62 -31 5 5 174 -13
201 -21 36 -11 15 -23 -35 -19 l-53 5 40 -14 c22 -8 60 -15 86 -15 25 -1 51
-7 58 -13 11 -10 14 -10 18 0 3 7 26 12 61 13 71 1 164 21 162 34 -1 6 -12 9
-26 8 -15 -1 -24 4 -24 13 0 9 10 14 28 13 40 -1 121 16 166 35 22 9 41 14 44
11 10 -10 41 27 36 43 -5 15 -4 15 8 2 13 -15 71 -22 62 -8 -3 5 3 11 13 15
10 3 28 15 40 26 20 18 23 18 29 3 3 -9 17 -16 29 -16 13 0 25 -6 28 -12 3
-10 8 -10 21 1 15 13 18 12 23 -8 4 -18 11 -22 30 -18 13 2 26 1 28 -3 2 -4
16 -5 30 -2 32 6 33 -15 1 -29 -17 -8 -29 -8 -45 0 -14 8 -21 8 -21 1 0 -5 4
-10 10 -10 9 0 -9 -26 -36 -54 -7 -7 -9 -19 -3 -33 6 -17 4 -25 -8 -31 -10 -6
-14 -17 -10 -31 4 -16 2 -20 -6 -13 -7 5 -22 8 -34 7 -19 -1 -22 2 -17 22 4
16 2 23 -8 23 -9 0 -14 -11 -14 -32 1 -27 -3 -33 -19 -31 -24 2 -35 -13 -35
-50 0 -24 -3 -27 -24 -21 -16 4 -25 1 -29 -11 -6 -14 -9 -14 -33 1 -22 15 -27
15 -35 3 -7 -12 -12 -12 -31 0 -17 9 -14 4 9 -20 26 -26 35 -31 45 -21 19 19
30 14 23 -9 -5 -14 -2 -25 6 -30 11 -7 11 -9 1 -9 -10 0 -10 -3 0 -14 7 -8 21
-12 31 -10 16 3 17 1 7 -12 -7 -8 -18 -13 -24 -12 -6 1 -27 -5 -46 -14 -19 -8
-48 -18 -65 -22 -16 -3 -64 -15 -105 -25 -150 -39 -183 -43 -338 -43 -103 1
-188 6 -247 17 -49 10 -108 20 -130 24 -22 4 -50 13 -63 20 -12 6 -64 13 -115
15 -177 6 -554 116 -717 210 -14 7 -44 22 -67 31 -23 10 -56 32 -74 51 -18 19
-39 34 -46 34 -7 0 -13 5 -13 12 0 7 -12 22 -27 34 -25 20 -26 23 -13 39 13
16 13 18 0 13 -8 -2 -27 7 -42 21 -27 24 -78 104 -78 123 0 5 -9 30 -21 54
-11 25 -19 58 -18 72 1 15 -1 35 -6 44 -4 10 -2 39 4 65 10 42 25 60 121 152
63 59 110 112 110 123 0 10 -1 18 -3 18 -23 0 -153 -66 -227 -115 -192 -128
-227 -202 -169 -363 22 -61 22 -62 9 -62 -5 0 -16 16 -25 35 -24 60 -62 87
-52 39 4 -21 1 -25 -14 -21 -11 3 -19 1 -19 -5 0 -5 -4 -6 -10 -3 -5 3 -10 1
-10 -4 0 -15 -53 -14 -68 1 -10 10 -14 8 -18 -10 -4 -12 -10 -22 -14 -22 -11
0 -21 30 -14 41 7 12 -5 49 -17 49 -14 0 -37 -63 -28 -76 5 -5 10 -27 13 -48
3 -20 9 -43 14 -49 5 -7 13 -23 17 -37 7 -22 6 -23 -8 -11 -30 24 -35 7 -14
-42 15 -33 26 -47 37 -44 8 3 21 6 29 8 8 2 20 -10 28 -30 13 -32 13 -34 -1
-21 -9 7 -19 10 -23 6 -10 -9 18 -56 34 -56 8 0 13 -6 12 -12 -3 -21 12 -48
27 -48 8 0 14 -7 14 -15 0 -8 7 -15 15 -15 8 0 15 -4 15 -10 0 -5 7 -10 15
-10 8 0 15 -9 15 -19 0 -11 6 -21 13 -24 6 -2 9 -7 6 -11 -12 -13 -239 227
-239 253 0 6 -5 11 -10 11 -12 0 -64 111 -76 164 -9 39 -34 62 -34 31 0 -13
-4 -14 -20 -5 -14 7 -20 7 -20 0 0 -5 -11 -10 -24 -10 -13 0 -29 -7 -36 -15
-7 -8 -16 -12 -22 -9 -5 3 -15 0 -23 -6 -8 -7 -21 -10 -29 -7 -8 3 -17 -1 -20
-9 -3 -8 -14 -14 -25 -14 -11 0 -23 -5 -26 -10 -4 -6 -15 -8 -26 -5 -11 4 -19
2 -19 -4 0 -6 -6 -11 -14 -11 -8 0 -22 -7 -30 -16 -9 -8 -20 -13 -25 -9 -5 3
-13 -4 -16 -16 -5 -14 -13 -19 -26 -16 -22 6 -25 -3 -7 -21 10 -10 5 -11 -20
-6 -36 7 -40 -1 -16 -34 20 -29 12 -39 -22 -23 -14 6 -29 9 -34 6 -5 -3 -11
-1 -15 5 -10 17 -25 11 -18 -7 5 -13 2 -15 -15 -11 -11 3 -23 1 -26 -6 -3 -7
-5 -7 -5 2 -1 6 -5 12 -11 12 -5 0 -7 -6 -5 -12 4 -10 -8 -12 -45 -10 -27 2
-50 0 -50 -5 1 -14 27 -43 39 -43 7 0 9 -4 6 -10 -3 -5 -17 -10 -30 -10 -20 0
-24 5 -22 22 1 15 -4 23 -17 26 -15 3 -18 0 -13 -19 5 -20 4 -21 -6 -9 -13 17
-47 15 -47 -2 0 -6 -9 -8 -20 -5 -26 7 -26 -8 1 -27 18 -12 49 -58 49 -72 0
-11 -30 -2 -49 15 -16 14 -18 21 -9 24 7 3 -4 6 -24 6 -20 1 -44 4 -54 8 -12
4 -15 3 -10 -5 5 -8 -2 -10 -26 -5 -30 6 -32 5 -19 -10 12 -15 11 -17 -13 -17
-14 0 -26 5 -26 10 0 6 -4 10 -10 10 -5 0 -10 -6 -10 -13 0 -18 -45 -41 -61
-32 -6 5 -23 9 -36 11 -19 2 -23 -1 -19 -13 4 -11 2 -13 -9 -9 -9 3 -15 0 -15
-8 0 -13 -34 -15 -46 -3 -19 19 -33 6 -27 -25 4 -22 3 -29 -5 -24 -7 4 -12 15
-12 26 0 14 -5 17 -21 13 -20 -6 -20 -7 -5 -18 9 -7 16 -21 16 -33 0 -33 11
-51 26 -45 8 3 14 0 14 -6 0 -26 -120 -37 -128 -12 -2 6 -8 11 -14 11 -5 0 -6
-9 -3 -21 6 -18 4 -20 -28 -14 -28 6 -39 3 -56 -14 -12 -12 -19 -26 -16 -31 3
-6 -1 -7 -10 -4 -11 5 -14 2 -9 -11 6 -15 3 -16 -24 -11 -27 6 -31 4 -34 -16
-2 -15 -9 -22 -20 -20 -11 2 -18 -3 -18 -13 0 -8 -7 -15 -16 -15 -9 0 -12 -5
-8 -12 5 -7 2 -9 -9 -5 -8 3 -21 -1 -28 -9 -10 -12 -8 -17 7 -29 18 -13 17
-14 -11 -11 -24 3 -30 8 -30 26 0 13 -6 25 -14 28 -10 3 -12 -1 -8 -17 4 -18
2 -20 -19 -15 -15 4 -24 2 -24 -5 0 -18 -20 -12 -21 7 0 14 -2 14 -8 -3 -5
-11 -4 -28 1 -38 11 -22 13 -19 -31 -42 -30 -15 -32 -19 -18 -27 19 -10 14
-28 -9 -28 -8 0 -14 7 -14 15 0 8 -7 15 -16 15 -11 0 -14 -6 -9 -20 6 -20 -9
-28 -20 -10 -3 5 -17 10 -30 10 l-24 0 26 -27 c25 -28 25 -28 3 -31 -17 -3
-19 -6 -9 -18 9 -11 9 -18 1 -26 -9 -9 -16 -6 -30 10 -25 28 -30 28 -26 -4 2
-20 -1 -24 -13 -19 -18 6 -47 -20 -58 -54 -5 -18 -13 -22 -31 -18 -13 2 -24 0
-24 -5 0 -6 -7 -8 -15 -4 -29 11 -45 -5 -45 -44 0 -29 -5 -40 -19 -45 -17 -5
-18 -16 -17 -119 2 -111 2 -114 37 -167 41 -64 53 -84 74 -124 8 -16 24 -41
35 -55 16 -21 20 -22 20 -7 0 10 -7 34 -15 54 -18 42 -18 46 -5 38 14 -8 13 8
-1 22 -13 13 -3 36 12 28 5 -4 9 -15 9 -25 0 -11 12 -24 30 -32 21 -9 30 -20
30 -36 0 -13 -4 -20 -10 -17 -5 3 -10 -1 -10 -10 0 -11 -5 -15 -15 -11 -8 3
-15 2 -15 -3 0 -15 33 -36 52 -33 11 2 22 -5 27 -20 8 -18 10 -19 10 -5 1 27
21 10 21 -19 0 -14 -6 -24 -14 -24 -8 0 -17 -7 -20 -16 -8 -20 -8 -24 2 -23
24 4 42 -3 42 -16 0 -8 -4 -15 -10 -15 -14 0 -13 -27 1 -36 6 -3 15 0 20 7 5
8 9 10 10 4 3 -33 10 -50 23 -57 9 -5 16 -14 16 -20 0 -6 11 -26 25 -44 14
-18 25 -40 25 -48 0 -9 5 -16 10 -16 6 0 10 -9 10 -20 0 -22 -20 -26 -37 -9
-9 9 -10 6 -6 -10 3 -12 15 -29 28 -39 12 -9 20 -22 18 -28 -2 -6 6 -14 17
-17 12 -3 20 -11 19 -19 -4 -31 2 -58 16 -71 12 -13 12 -15 -5 -20 -11 -3 -24
1 -31 9 -20 25 -28 15 -12 -16 12 -25 18 -29 29 -19 11 9 15 6 20 -19 5 -24
11 -31 27 -29 17 2 20 -4 22 -44 1 -25 8 -56 16 -70 17 -32 22 -69 9 -69 -6 0
-15 11 -22 25 -6 13 -15 22 -19 19 -5 -3 -9 -1 -9 5 0 5 -3 17 -6 25 -4 11 -2
15 8 11 11 -5 14 1 10 25 -5 35 -22 51 -22 20 0 -25 -17 -18 -31 13 -5 12 -13
29 -19 37 -5 8 -19 38 -30 65 -12 28 -30 68 -40 90 -50 106 -70 153 -70 159 0
4 -11 23 -24 42 -16 24 -26 32 -31 24 -4 -7 -4 -15 1 -19 13 -9 34 -49 34 -63
0 -18 -14 0 -50 67 -19 33 -41 74 -51 90 -10 17 -30 52 -44 78 -16 29 -30 45
-37 41 -7 -5 -8 -3 -3 5 4 8 -5 30 -23 54 -16 23 -32 52 -36 65 -4 12 -12 22
-17 22 -5 0 -9 7 -9 15 0 8 -4 15 -10 15 -5 0 -10 -20 -10 -44 0 -34 5 -48 20
-59 18 -13 19 -15 5 -21 -9 -3 -13 -10 -10 -16 3 -5 2 -10 -3 -10 -6 0 -9 -47
-8 -110 0 -60 5 -110 10 -110 5 0 4 -6 -2 -13 -15 -18 -16 -696 -1 -714 8 -9
8 -17 1 -26 -15 -18 -14 -238 1 -256 7 -8 11 -16 10 -18 -8 -10 0 -21 19 -26
18 -5 19 -8 8 -22 -7 -9 -21 -13 -31 -10 -17 6 -19 0 -19 -57 1 -48 3 -59 11
-45 5 9 14 17 19 17 13 0 13 -37 1 -44 -5 -3 -7 -15 -4 -27 4 -14 8 -17 13 -9
5 8 12 5 24 -11 22 -33 20 -39 -13 -39 -26 0 -29 4 -36 42 -8 39 -9 41 -13 14
-2 -16 2 -41 10 -54 10 -20 10 -26 1 -29 -10 -4 -13 -151 -13 -659 l0 -654
4700 0 4700 0 0 180 c0 153 -2 180 -15 180 -8 0 -15 4 -15 9 0 5 7 11 15 15
13 5 15 72 15 521 0 286 -4 535 -9 558 -6 23 -17 78 -26 122 -10 44 -20 87
-23 95 -3 8 -7 22 -8 30 -8 58 -37 176 -46 187 -6 7 -4 13 4 16 10 3 9 9 -5
24 -10 11 -17 24 -15 29 3 12 -31 144 -43 166 -5 10 -9 26 -9 36 0 16 -24 119
-35 151 -4 10 -9 11 -19 2 -11 -9 -15 -7 -19 10 -4 15 -2 19 9 15 8 -3 14 1
14 9 0 8 -7 15 -15 15 -17 0 -19 12 -5 26 14 14 -6 68 -21 58 -8 -4 -9 0 -4
15 4 12 2 21 -4 21 -6 0 -8 12 -4 30 5 25 3 29 -11 24 -10 -4 -16 -1 -16 9 0
8 5 17 12 19 8 3 6 11 -4 29 -9 13 -30 67 -48 119 -17 52 -35 100 -40 105 -4
6 -15 37 -25 70 -10 33 -26 68 -35 77 -10 9 -21 38 -25 64 -7 49 -24 82 -62
120 -12 12 -25 39 -29 60 -4 22 -21 59 -38 84 -26 38 -31 42 -34 24 -6 -41 50
-230 107 -364 61 -143 78 -187 90 -235 5 -16 15 -46 23 -65 8 -19 23 -69 32
-110 10 -41 22 -82 26 -90 8 -16 44 -152 54 -200 2 -14 11 -46 19 -72 8 -27
13 -48 10 -48 -3 0 1 -7 8 -16 7 -9 12 -29 11 -44 -2 -15 3 -34 10 -41 7 -8
15 -34 16 -59 2 -25 8 -46 13 -48 5 -2 9 -12 9 -22 0 -10 5 -22 11 -26 6 -3 8
-17 5 -29 -3 -13 -2 -27 4 -30 5 -3 10 -28 10 -56 0 -27 4 -57 9 -67 13 -23
45 -241 37 -249 -11 -12 -40 39 -43 76 -4 52 -33 192 -46 221 -6 14 -11 41
-12 60 0 19 -7 46 -15 60 -17 28 -17 31 -29 120 -9 63 -18 104 -41 185 -6 22
-16 63 -21 90 -6 28 -17 64 -25 82 -7 17 -14 42 -14 55 0 25 -23 103 -46 153
-7 17 -13 41 -12 55 0 22 -36 137 -62 195 -5 11 -12 34 -15 52 -3 17 -13 37
-21 44 -8 6 -14 18 -14 25 0 8 -5 14 -11 14 -7 0 -10 -12 -7 -30 3 -17 0 -31
-8 -34 -18 -7 -24 4 -18 31 4 13 0 30 -7 40 -8 8 -12 26 -11 38 2 11 -3 34 -9
51 -14 33 -36 117 -48 184 -12 69 -31 143 -43 167 -6 12 -11 32 -12 45 -1 13
-7 22 -13 21 -6 -1 -14 11 -18 28 -4 16 -20 44 -36 62 -16 17 -29 36 -29 42 0
6 -8 20 -18 31 -26 28 -92 139 -92 155 0 8 -18 25 -40 39 -22 14 -40 28 -40
32 0 8 -98 106 -106 106 -15 1 -28 10 -22 17 14 15 96 -43 181 -128 48 -48 87
-92 87 -98 0 -5 5 -9 10 -9 6 0 10 10 10 21 0 15 -38 59 -111 130 -60 60 -114
109 -119 109 -5 0 -15 6 -22 13 -34 33 -170 116 -248 152 -30 14 -57 29 -60
34 -6 9 -200 90 -250 103 -19 6 -48 16 -65 23 -16 7 -50 18 -75 24 -25 6 -99
25 -165 42 -66 16 -138 36 -160 44 -22 7 -76 21 -120 31 -44 9 -84 20 -90 24
-5 3 -30 12 -55 19 -25 6 -54 16 -65 21 -106 48 -351 132 -425 145 -19 3 -46
10 -60 15 -14 5 -52 16 -85 26 -33 9 -66 22 -72 27 -7 5 -13 6 -13 2 0 -4 -7
-2 -16 6 -9 7 -38 12 -65 12 -49 -1 -49 -1 -77 50 -15 28 -28 44 -30 35 -2
-10 -12 -13 -31 -10 -25 3 -31 11 -41 50 -11 44 -32 68 -74 85 -18 7 -17 5 4
-20 14 -15 27 -30 30 -33 9 -8 11 -90 3 -90 -16 0 -35 18 -30 27 8 12 -50 129
-88 179 -30 39 -180 154 -202 154 -29 0 -13 -50 30 -89 73 -68 112 -176 63
-176 -10 0 -22 -10 -27 -23 -5 -12 -14 -22 -21 -22 -9 0 -9 3 -1 11 8 8 3 19
-17 39 -20 21 -29 42 -34 82 -3 29 -10 78 -14 108 -11 86 -7 241 7 285 8 22
28 54 46 70 43 40 109 160 126 226 7 30 16 58 21 64 4 5 8 17 8 27 0 19 78
158 89 158 3 0 7 14 7 32 1 18 6 34 13 36 6 2 11 12 11 22 0 10 4 22 10 25 5
3 9 32 9 63 -1 33 6 73 15 95 12 26 17 68 17 142 0 80 5 116 19 148 14 33 16
53 10 92 -9 59 -6 71 21 78 19 5 20 7 4 37 -9 17 -13 35 -9 41 3 6 0 24 -6 40
-10 24 -10 42 0 86 21 94 20 151 -2 231 -14 52 -19 93 -15 131 3 40 -3 88 -23
169 -26 107 -26 112 -7 95 19 -17 19 -17 14 2 -18 63 -28 187 -20 261 8 69 6
83 -7 91 -11 8 -14 23 -12 59 5 66 5 86 2 327 -2 136 1 212 8 219 6 6 7 21 2
39 -5 16 -9 75 -9 132 -1 135 -2 141 -33 222 -33 88 -41 122 -28 127 6 2 3 15
-6 33 -9 18 -10 25 -3 18 19 -19 28 -16 22 7 -3 12 -17 27 -32 34 -36 19 -74
62 -67 75 4 5 -4 15 -16 22 -56 29 -72 64 -56 127 9 35 9 47 0 50 -15 5 -16
72 -1 72 25 0 -39 219 -65 221 -16 1 -66 64 -71 90 -6 31 -36 63 -46 47 -10
-15 -41 8 -37 28 7 34 -170 128 -382 204 -148 52 -206 67 -310 79 -46 5 -86
14 -88 20 -4 11 -17 12 -77 5z m-325 -1023 c0 -22 26 -46 34 -33 11 18 68 22
99 7 20 -10 43 -13 65 -9 24 5 33 3 28 -4 -12 -19 15 -24 30 -6 12 17 13 17 8
2 -3 -10 -1 -18 5 -18 21 0 119 -41 138 -58 11 -9 23 -27 27 -39 7 -23 26 -28
84 -23 14 1 25 -6 30 -18 9 -25 112 -97 121 -85 9 13 106 10 124 -5 20 -17 67
-25 67 -13 0 6 6 8 14 5 7 -3 21 2 30 12 13 12 20 14 29 5 16 -16 25 -14 23 7
-1 21 58 30 80 11 11 -9 18 -9 26 -1 15 15 39 -4 31 -24 -3 -8 2 -21 12 -28
13 -9 16 -20 11 -40 -4 -15 -3 -32 1 -39 4 -7 8 -28 9 -47 8 -164 33 -300 56
-300 4 0 8 -11 8 -24 0 -13 9 -35 20 -49 11 -14 20 -32 20 -40 0 -22 26 -68
52 -91 21 -19 68 -102 68 -121 0 -4 8 -19 18 -33 27 -39 114 -258 156 -392 45
-143 83 -327 92 -445 10 -152 -25 -595 -48 -595 -4 0 -8 -10 -8 -22 0 -21 0
-21 -20 2 -18 20 -23 22 -46 11 -17 -7 -24 -17 -20 -26 3 -9 0 -15 -9 -15 -8
0 -14 3 -13 8 0 4 -4 18 -10 32 -8 18 -11 20 -11 8 -1 -10 -5 -18 -11 -18 -5
0 -10 -5 -10 -11 0 -22 -33 -38 -55 -26 -17 9 -18 8 -7 -5 10 -13 9 -15 -12
-11 -15 3 -23 10 -19 18 2 8 0 21 -5 31 -8 15 -12 14 -33 -11 -69 -83 -89
-100 -98 -86 -6 9 -11 10 -15 2 -4 -6 -3 -11 3 -11 6 0 8 -7 4 -15 -5 -14 -7
-14 -23 0 -9 8 -23 15 -31 15 -11 -1 -10 -4 4 -14 20 -15 22 -27 5 -24 -8 2
-14 -9 -16 -24 -2 -16 -9 -28 -18 -28 -8 0 -14 -4 -14 -10 0 -5 4 -10 8 -10 7
0 32 -56 32 -72 0 -3 -11 -3 -24 -1 -18 4 -25 0 -28 -14 -3 -12 -9 -4 -18 25
-7 23 -17 42 -23 42 -5 0 -6 -7 -3 -15 21 -51 21 -50 -7 -29 -23 17 -40 43
-19 30 4 -3 8 14 7 37 -1 31 -5 43 -18 45 -9 2 -17 12 -17 23 0 12 -7 19 -18
19 -10 0 -24 6 -31 13 -10 10 -14 8 -23 -7 -8 -14 -12 -15 -18 -6 -4 7 -13 9
-20 5 -11 -7 -9 -30 6 -69 4 -12 0 -16 -15 -16 -12 0 -21 -5 -21 -11 0 -5 4
-8 9 -4 5 3 12 1 15 -4 12 -19 -16 -23 -35 -5 -10 9 -22 14 -26 11 -3 -4 -12
-2 -20 4 -9 8 -13 8 -13 0 0 -15 -43 -7 -48 9 -3 7 0 10 7 6 6 -4 11 -4 11 1
-1 4 -24 26 -51 47 -41 31 -53 36 -60 25 -7 -11 -10 -10 -15 7 -5 19 -11 21
-45 17 -35 -5 -41 -3 -46 16 -3 11 -10 21 -17 21 -6 0 -17 9 -24 20 -7 12 -17
18 -21 15 -5 -3 -23 8 -39 25 -17 16 -38 30 -46 30 -29 0 -16 35 23 61 20 15
54 32 75 39 50 16 102 70 110 114 10 50 -24 124 -70 154 -46 30 -53 23 -16
-19 16 -19 34 -44 41 -56 18 -35 13 -97 -10 -127 -24 -30 -69 -52 -78 -38 -15
23 -48 22 -82 -3 -19 -14 -67 -46 -107 -72 -79 -49 -109 -51 -98 -7 11 44 37
73 80 93 l41 19 -46 1 c-54 1 -87 -20 -125 -80 -30 -48 -31 -62 -3 -54 14 5
25 2 30 -6 15 -23 10 -31 -13 -23 -23 7 -23 7 -4 -15 15 -16 22 -18 28 -9 5 9
7 7 5 -7 -4 -28 -17 -46 -28 -40 -5 4 -9 1 -9 -5 0 -7 -7 -10 -15 -6 -8 3 -15
1 -15 -4 0 -6 -9 -19 -19 -29 -21 -21 -41 -11 -41 21 0 24 -27 23 -35 -1 -4
-15 -12 -18 -33 -15 -15 3 -28 9 -30 13 -1 5 -13 6 -26 4 -30 -6 -39 22 -18
54 13 21 11 23 -20 36 -33 14 -88 69 -88 88 0 5 -9 18 -20 29 -16 16 -32 20
-65 19 -49 -3 -58 -14 -22 -28 24 -10 51 -37 60 -63 4 -11 -1 -18 -19 -22 -14
-4 -29 -4 -35 -1 -5 4 -12 -1 -15 -9 -3 -9 -10 -13 -16 -10 -5 3 -12 -3 -15
-14 -3 -14 -11 -18 -24 -15 -11 3 -19 0 -19 -7 0 -7 -19 -31 -42 -52 -37 -35
-48 -39 -79 -35 -27 4 -38 0 -47 -14 -7 -11 -23 -19 -36 -19 -13 0 -29 -7 -36
-15 -7 -8 -19 -15 -27 -15 -7 0 -16 -7 -19 -15 -11 -28 -24 -15 -24 24 0 30
-6 44 -22 55 -22 15 -22 17 -5 45 9 16 17 37 17 47 0 15 -3 14 -25 -6 -14 -13
-25 -28 -25 -33 0 -6 -7 -18 -16 -28 -8 -9 -15 -32 -14 -50 0 -19 1 -42 1 -52
0 -13 5 -17 16 -13 12 5 14 1 10 -14 -3 -11 1 -26 8 -34 8 -8 11 -25 8 -42 -3
-16 -6 -45 -8 -64 -3 -41 -13 -86 -25 -115 -14 -38 25 -28 43 11 9 19 20 34
25 34 14 0 46 -64 44 -87 -2 -23 12 -31 23 -13 4 7 12 7 25 0 28 -15 32 -12
19 11 -8 15 -8 19 0 15 7 -4 11 1 11 13 0 27 20 27 27 1 3 -11 9 -17 14 -14 5
3 9 0 9 -6 0 -6 4 -8 10 -5 5 3 24 -14 42 -40 22 -32 35 -42 42 -35 8 8 4 17
-14 31 -14 12 -18 19 -9 16 19 -6 30 1 45 28 14 28 7 52 -18 58 -38 10 -9 24
61 29 39 3 81 12 94 21 16 10 28 12 40 6 19 -11 237 -6 255 5 7 4 34 3 60 -3
66 -16 135 -20 204 -12 32 4 61 4 63 0 3 -4 17 -10 32 -13 16 -4 35 -16 44
-28 14 -18 17 -18 31 -5 14 14 18 13 39 -11 13 -15 22 -33 21 -40 -2 -7 1 -12
5 -11 22 4 32 -2 27 -16 -5 -12 -10 -13 -23 -4 -9 6 0 -3 19 -20 19 -17 29
-31 22 -31 -7 0 -12 -6 -12 -14 0 -12 6 -12 33 -3 40 15 51 28 71 94 9 29 21
53 25 53 16 0 41 -38 35 -54 -3 -9 -1 -16 4 -16 6 0 19 -16 28 -35 12 -27 14
-38 5 -49 -12 -14 -5 -46 9 -46 4 0 10 -6 13 -14 4 -11 1 -11 -19 -2 -15 7
-24 20 -24 34 0 27 -11 28 -33 4 -13 -15 -14 -21 -4 -32 9 -10 9 -11 0 -6 -8
4 -23 -4 -37 -18 -27 -30 -36 -32 -36 -11 0 8 -8 15 -18 15 -29 0 -32 -10 -9
-33 20 -20 20 -22 4 -25 -15 -3 -16 -7 -6 -18 10 -12 9 -13 -7 -7 -10 4 -26
16 -36 28 -9 11 -19 17 -23 13 -8 -8 16 -48 30 -48 6 0 16 -9 23 -20 7 -12 17
-18 21 -15 17 10 39 -6 34 -26 -4 -14 0 -19 15 -19 11 0 22 -8 25 -17 3 -16 5
-16 12 2 5 11 16 25 24 31 13 10 13 14 1 30 -14 16 -13 16 8 5 20 -11 22 -10
22 17 0 16 7 35 15 42 12 10 16 8 24 -11 9 -21 10 -22 11 -4 0 16 2 17 10 5 6
-10 5 -17 -5 -23 -8 -4 -15 -14 -15 -22 0 -8 -6 -12 -14 -9 -17 6 -36 -24 -28
-45 3 -8 0 -11 -7 -7 -11 7 -16 -17 -11 -58 1 -13 -3 -17 -14 -13 -19 8 -21
-4 -3 -22 10 -10 8 -15 -6 -25 -58 -43 -67 -52 -67 -63 0 -7 -9 -13 -20 -13
-11 0 -20 -4 -20 -10 0 -5 -7 -7 -15 -4 -8 4 -15 1 -15 -6 0 -6 -4 -8 -10 -5
-5 3 -10 2 -10 -4 0 -5 -14 -12 -31 -16 -36 -8 -52 7 -44 43 3 12 1 22 -4 22
-6 0 -13 -16 -17 -36 -7 -38 -30 -55 -45 -33 -6 9 -7 4 -3 -16 7 -27 6 -29 -9
-17 -17 14 -43 6 -66 -22 -7 -8 -25 -18 -41 -21 -16 -3 -34 -13 -40 -21 -7 -7
-17 -11 -22 -8 -5 3 -12 -3 -15 -14 -7 -29 -33 -37 -33 -10 l0 21 -23 -21
c-20 -19 -63 -31 -119 -35 -10 -1 -18 -5 -18 -10 0 -5 -7 -6 -16 -3 -9 4 -22
2 -28 -3 -7 -6 -26 -4 -50 4 -22 8 -44 11 -49 8 -4 -3 -11 4 -14 16 -3 12 -13
21 -24 21 -10 0 -21 5 -25 12 -5 8 -11 6 -20 -6 -14 -20 -29 -5 -20 20 3 9 -1
17 -12 21 -9 4 -23 15 -31 26 -13 18 -15 18 -23 3 -7 -13 -13 -14 -23 -6 -7 6
-22 10 -32 8 -14 -2 -19 5 -21 34 l-3 37 -36 -25 c-19 -13 -39 -21 -44 -18
-13 7 -11 38 2 51 6 6 8 16 5 22 -11 16 -36 1 -36 -23 l-1 -21 -18 23 c-11 12
-29 22 -40 22 -14 0 -21 6 -21 20 0 12 -10 25 -25 32 -17 8 -24 17 -20 28 3
10 -1 23 -10 30 -10 8 -12 17 -6 24 6 7 6 27 1 51 -5 22 -7 48 -4 58 5 17 -10
24 -20 8 -8 -12 -59 -1 -69 15 -4 8 -16 14 -25 14 -10 0 -23 5 -30 12 -9 9
-17 6 -33 -13 -15 -16 -20 -18 -16 -6 4 9 3 17 -1 18 -23 2 -56 10 -61 14 -2
3 -4 19 -4 35 0 25 -4 29 -19 24 -10 -3 -28 -2 -40 2 l-22 7 23 18 c13 11 29
19 36 19 22 0 26 29 5 40 -11 6 -20 17 -20 25 0 9 -9 23 -19 32 -11 9 -18 20
-15 25 3 4 -2 5 -11 2 -8 -4 -20 -15 -25 -25 -12 -21 -44 -14 -36 7 3 8 -1 14
-10 14 -14 0 -15 8 -9 46 l6 45 -30 -15 c-19 -10 -32 -12 -36 -6 -12 20 -25
10 -25 -19 0 -32 -14 -49 -25 -31 -4 6 -4 19 0 28 12 29 14 76 3 90 -7 8 -7
17 2 27 10 12 10 19 2 27 -7 7 -12 20 -12 30 0 32 -19 19 -29 -19 -6 -21 -11
-43 -11 -49 0 -19 -40 -25 -40 -6 0 10 -7 26 -15 36 -16 21 -11 51 11 73 11
11 10 17 -6 33 -17 17 -18 23 -8 40 11 17 10 22 -2 30 -8 5 -23 7 -32 4 -11
-3 -19 2 -23 16 -4 12 -12 19 -19 17 -7 -3 -18 4 -24 14 -18 28 -32 23 -26
-10 6 -27 4 -28 -22 -23 -26 5 -28 4 -15 -11 7 -10 10 -17 6 -17 -13 0 -34 34
-35 54 0 12 -5 16 -15 12 -10 -3 -15 1 -15 12 0 13 -2 14 -9 3 -15 -23 -33 -2
-26 30 5 23 3 29 -10 29 -10 0 -13 5 -9 12 4 6 -1 17 -11 24 -10 7 -17 26 -17
41 0 15 -6 37 -13 48 -7 11 -21 43 -31 70 -9 28 -22 56 -27 63 -10 12 -27 83
-28 112 0 8 -5 41 -11 72 -6 32 -7 65 -3 75 4 10 8 61 9 113 2 52 10 124 18
160 9 36 25 101 36 145 11 44 25 114 32 155 6 41 15 84 20 96 4 11 13 47 20
80 12 58 40 118 83 181 62 90 77 122 77 162 0 34 6 48 40 82 44 46 47 54 24
63 -14 5 -13 10 10 33 27 27 32 38 18 47 -6 4 -8 37 -3 66 1 3 12 17 25 32 12
15 34 48 47 73 13 25 30 45 36 45 7 0 13 6 13 13 0 7 15 12 41 13 22 0 44 6
48 13 10 15 111 23 128 9 7 -5 14 -5 18 2 3 5 -1 10 -9 10 -25 0 -19 20 7 22
12 0 28 2 35 2 8 1 19 9 26 19 17 23 24 22 28 -5 4 -22 5 -21 17 7 29 68 38
81 76 102 22 13 39 27 38 33 -2 5 9 18 24 27 47 31 73 60 73 80 0 16 16 26 78
48 42 15 84 34 93 41 8 8 23 14 32 14 9 0 17 4 17 9 0 5 21 12 48 16 26 4 42
10 35 12 -17 6 26 53 48 53 10 0 25 -7 33 -16 15 -14 19 -13 47 7 l32 22 43
-22 c51 -27 84 -23 108 14 14 21 20 24 36 15 11 -6 20 -19 20 -29z m-53 -2692
c32 -9 46 -9 57 0 10 8 101 9 101 1 0 -2 31 -6 100 -13 22 -3 60 -10 85 -16
25 -5 59 -10 77 -11 40 0 123 -49 123 -72 0 -11 5 -15 14 -12 13 5 34 -31 24
-41 -1 -2 -41 2 -86 8 -63 8 -88 8 -102 -1 -11 -6 -26 -9 -35 -6 -8 3 -15 1
-15 -5 0 -7 -14 -9 -40 -6 -21 2 -42 0 -45 -5 -3 -6 -16 -10 -28 -10 -12 0
-40 -6 -62 -13 -63 -20 -264 -7 -285 18 -6 7 -20 11 -31 8 -18 -5 -70 11 -121
38 -11 5 -18 4 -20 -3 -6 -16 -68 29 -68 48 0 9 5 12 12 8 8 -5 9 -2 5 9 -5
13 -1 17 16 17 12 0 30 9 40 20 9 11 29 20 44 21 16 0 45 6 67 12 57 17 125
20 173 6z m-3559 -4753 c25 5 25 4 10 -9 -10 -8 -18 -24 -18 -37 0 -16 -4 -20
-15 -16 -24 9 -23 -58 1 -85 13 -14 13 -19 1 -31 -12 -12 -13 -17 -1 -33 16
-22 18 -45 4 -45 -5 0 -10 8 -10 18 0 24 -8 32 -26 25 -23 -8 -16 -43 10 -52
13 -5 26 -19 29 -32 4 -16 3 -19 -6 -10 -6 6 -19 11 -30 11 -29 0 -20 -64 11
-68 12 -2 22 -9 22 -16 0 -16 -45 -10 -59 8 -5 6 -12 39 -15 73 -3 34 -9 69
-12 77 -3 9 -1 16 5 16 8 0 10 18 7 55 -4 48 -3 55 13 55 17 0 30 28 36 80 4
29 7 35 12 23 3 -8 15 -11 31 -7z m208 -59 c4 -4 13 -2 20 4 22 18 26 -9 4
-33 -23 -25 -12 -45 17 -30 16 9 19 7 21 -13 2 -30 -25 -55 -34 -31 -3 9 -13
16 -20 16 -8 0 -17 6 -20 13 -3 8 -11 14 -19 14 -8 0 -12 -4 -9 -8 2 -4 0 -10
-5 -14 -9 -5 16 -59 44 -95 7 -8 15 -24 19 -34 5 -16 4 -17 -8 -7 -20 17 -32
8 -40 -29 -7 -39 -26 -30 -26 13 0 18 -7 45 -15 61 -21 40 -19 55 7 48 14 -3
19 -2 14 6 -4 7 -13 12 -19 12 -7 0 -18 9 -25 21 -10 16 -11 24 -1 35 6 8 14
12 16 10 7 -7 53 36 48 45 -6 9 22 6 31 -4z m8321 -227 c7 -41 15 -97 18 -125
2 -27 9 -84 15 -125 14 -98 17 -137 23 -247 3 -51 8 -96 10 -100 3 -4 8 -42
12 -83 3 -41 9 -83 11 -92 7 -22 -5 -60 -16 -53 -4 3 -8 24 -9 47 -2 74 -19
236 -27 260 -4 13 -7 50 -6 83 1 33 -3 85 -8 115 -5 30 -19 114 -29 185 -11
72 -27 150 -35 173 -15 43 -15 43 7 40 19 -3 24 -13 34 -78z"/>
<path d="M5237 8003 c-4 -3 -28 -7 -54 -9 -27 -1 -55 -4 -63 -7 -8 -2 -49 -10
-90 -16 -45 -7 -83 -19 -95 -30 -11 -10 -30 -24 -42 -30 -20 -10 -23 -9 -23 9
0 22 -15 27 -26 8 -15 -24 -14 -68 1 -68 8 0 15 -4 15 -10 0 -5 6 -10 14 -10
8 0 16 -7 20 -15 3 -8 16 -15 30 -15 13 0 26 -7 30 -15 3 -9 18 -15 35 -15 16
0 33 -5 36 -10 4 -7 12 -7 24 0 10 5 21 7 24 4 3 -3 15 0 27 6 12 6 80 13 152
16 72 2 149 9 172 15 22 6 74 12 114 13 59 2 76 6 84 20 13 23 -10 48 -71 79
-25 13 -64 35 -86 50 -34 22 -55 27 -131 32 -50 3 -94 2 -97 -2z"/>
<path d="M3282 7900 c-19 -9 -33 -20 -32 -24 4 -16 -55 -66 -77 -66 -33 0 -77
-24 -102 -56 -26 -33 -26 -39 -1 -64 25 -25 50 -26 50 -2 1 14 3 14 19 -5 19
-22 69 -33 56 -13 -3 6 1 10 9 10 9 0 16 7 16 15 0 18 11 19 45 3 21 -10 28
-9 35 2 5 8 4 22 -1 32 -7 14 -6 18 5 18 8 0 18 -4 21 -10 3 -5 17 -9 30 -8
18 2 21 5 13 15 -12 15 3 18 17 4 8 -8 70 -15 98 -12 4 1 0 12 -9 26 -11 17
-12 25 -4 25 18 0 54 -21 68 -41 7 -10 25 -18 40 -18 15 1 50 -4 77 -10 42
-10 52 -9 61 4 6 8 19 15 28 15 14 0 15 4 6 20 -14 27 6 27 40 0 35 -27 43
-25 38 10 -3 23 -1 29 8 26 24 -9 27 17 4 36 -12 10 -17 18 -11 18 19 0 3 19
-31 36 -28 15 -30 15 -25 0 5 -14 3 -15 -13 -6 -10 5 -22 15 -25 20 -8 12
-328 16 -367 4 -10 -3 -25 -1 -35 4 -12 6 -29 3 -51 -8z"/>
<path d="M4785 7660 c-3 -5 -19 -10 -34 -10 -49 0 -127 -50 -118 -74 3 -8 2
-18 -4 -21 -5 -4 -9 -12 -8 -18 4 -32 -4 -45 -38 -64 -22 -11 -36 -26 -34 -34
2 -8 3 -21 3 -29 0 -8 4 -26 9 -40 5 -14 11 -39 12 -55 5 -45 29 -88 54 -101
13 -6 20 -14 16 -17 -3 -4 -1 -7 5 -7 6 0 17 -12 24 -27 15 -30 58 -51 58 -28
0 19 46 20 57 2 13 -21 41 -28 47 -11 11 30 6 51 -25 98 -30 45 -31 47 -13 61
23 17 37 18 50 5 6 -6 24 -13 39 -16 16 -3 50 -14 76 -26 27 -11 54 -18 61
-15 9 3 6 7 -7 12 -82 29 -130 53 -151 72 -14 13 -38 30 -54 38 -30 15 -56 52
-46 63 12 11 261 5 306 -7 25 -7 55 -13 67 -14 12 -1 28 -8 35 -14 10 -10 2
-13 -37 -14 -68 -1 -30 -17 42 -18 28 -1 55 -6 58 -11 5 -8 11 -7 20 0 11 9
23 8 50 -1 41 -15 46 -29 11 -29 -25 0 -46 -16 -23 -17 7 -1 35 -6 62 -11 31
-7 54 -7 59 -1 6 5 18 9 28 9 11 0 37 9 59 19 21 11 37 15 33 10 -3 -5 4 -9
15 -9 31 0 34 17 6 36 -30 20 -32 34 -5 34 11 0 20 -4 20 -10 0 -5 5 -10 10
-10 6 0 10 9 10 20 0 12 7 20 16 20 11 0 14 -5 10 -16 -4 -10 -1 -14 6 -12 7
3 13 11 14 19 1 22 32 87 46 96 12 8 38 47 38 58 0 3 -6 5 -14 5 -8 0 -16 4
-18 10 -1 5 -19 11 -38 14 -43 5 -70 15 -70 26 0 4 -25 19 -55 34 -50 23 -71
27 -213 32 -96 4 -194 2 -252 -5 -205 -25 -218 -25 -235 -7 -19 18 -31 20 -40
6z"/>
<path d="M3975 7599 c-4 -5 1 -21 9 -34 16 -25 16 -25 -12 -25 -15 0 -32 4
-37 9 -17 16 -124 31 -218 31 -88 0 -89 0 -66 -19 l23 -18 -35 -6 c-84 -15
-169 -20 -169 -9 0 7 11 14 25 18 14 3 25 10 25 15 0 17 -192 -18 -254 -45
-17 -8 -42 -17 -56 -20 -14 -3 -35 -14 -47 -26 -12 -11 -27 -20 -33 -20 -13 0
-13 -13 0 -26 14 -14 2 -44 -16 -44 -8 0 -14 -6 -14 -14 0 -21 17 -28 24 -10
10 27 26 5 26 -37 0 -33 9 -48 23 -36 2 1 18 -10 36 -26 33 -27 57 -28 47 0
-8 19 20 48 30 32 3 -6 0 -15 -7 -20 -8 -5 -9 -9 -4 -10 6 0 23 -3 39 -5 23
-4 27 -2 22 11 -4 13 -2 14 14 5 12 -7 21 -7 25 0 3 5 34 10 68 10 81 0 62 17
-23 21 -36 2 -70 7 -77 12 -8 6 -17 -2 -28 -22 -8 -17 -17 -31 -18 -31 -1 0
-2 15 -3 33 0 32 2 34 50 45 35 7 67 8 100 2 26 -6 60 -7 75 -3 26 7 33 8 79
11 12 1 22 9 22 17 0 8 7 15 16 15 9 0 14 -6 11 -13 -5 -14 3 -13 133 11 30 6
92 13 137 15 93 5 113 -4 87 -41 -12 -17 -12 -22 -2 -22 15 1 42 35 52 68 6
17 3 22 -9 22 -10 0 -30 11 -47 25 -16 14 -36 25 -44 25 -8 0 -14 4 -14 10 0
6 9 6 26 0 36 -14 39 -13 54 15 7 14 20 25 29 25 9 0 24 6 33 14 13 10 15 15
6 24 -7 7 -17 12 -23 12 -6 0 -27 9 -47 20 -24 12 -39 16 -43 9z"/>
<path d="M4438 5862 c-37 -9 -80 -49 -76 -70 5 -24 54 -23 52 1 -2 14 5 11 32
-13 36 -31 64 -39 64 -17 0 7 5 4 11 -5 8 -15 13 -16 29 -5 26 16 25 21 -5 35
-22 10 -24 15 -14 33 6 12 7 25 2 30 -13 13 -64 18 -95 11z"/>
</g>
</svg>
